# xmcd CD database file
#
# Track frame offsets:
#	150
#	21121
#	47126
#	99719
#	133328
#	163293
#	191005
#	230554
#	259736
#	281542
#
# Disc length: 4071 seconds
#
# Revision: 0
# Processed by: cddbd v1.4PL0 Copyright (c) Steve Scherf et al.
# Submitted via: CDex 1.50Beta7
#
DISCID=940fe50a
DTITLE=Kenny Barron Trio - Green Chimneys
DYEAR=1900
DGENRE=Jazz
TTITLE0=Softly As In a Mornin' Sunrise
TTITLE1=Don't Explain
TTITLE2=There Is No Creater Love
TTITLE3=Skylark
TTITLE4=Green Chimneys
TTITLE5=Straight No Chaser
TTITLE6=Dime Was
TTITLE7=When Lights Are Low
TTITLE8=Mornin'  Blues
TTITLE9=Dime Was (2)
EXTD=
EXTT0=
EXTT1=
EXTT2=
EXTT3=
EXTT4=
EXTT5=
EXTT6=
EXTT7=
EXTT8=
EXTT9=
PLAYORDER=
